<svg width="1440" height="327" viewBox="0 0 1440 327" fill="none" xmlns="http://www.w3.org/2000/svg">
<g clip-path="url(#clip0_4054_2866)">
<path d="M-3 238.165L203.83 224.54L409.057 214.185L615.887 222.36L821.113 200.56L1027.94 234.35L1233.17 222.905L1440 220.18V327.545H1233.17H1027.94H821.113H615.887H409.057H203.83H-3V238.165Z" fill="#D9D9D9"/>
<path d="M-3 251.245L203.83 247.43L409.057 255.06L615.887 234.35L821.113 228.9L1027.94 248.52L1233.17 219.635L1440 252.88V327.545H1233.17H1027.94H821.113H615.887H409.057H203.83H-3V251.245Z" fill="#C4C4C5"/>
<path d="M-3 244.705L203.83 270.32L409.057 258.875L615.887 270.32L821.113 250.155L1027.94 273.59L1233.17 263.235L1440 264.325V327.545H1233.17H1027.94H821.113H615.887H409.057H203.83H-3V244.705Z" fill="#AFB0B2"/>
<path d="M-3 267.05L203.83 283.4L409.057 281.765L615.887 273.59L821.113 280.13L1027.94 278.495L1233.17 281.22L1440 277.95V327.545H1233.17H1027.94H821.113H615.887H409.057H203.83H-3V267.05Z" fill="#9B9C9F"/>
<path d="M-3 290.485L203.83 295.39L409.057 304.655L615.887 298.66L821.113 294.3L1027.94 294.845L1233.17 291.03L1440 300.84V327.545H1233.17H1027.94H821.113H615.887H409.057H203.83H-3V290.485Z" fill="#87888D"/>
</g>
<defs>
<clipPath id="clip0_4054_2866">
<rect width="1443" height="327" fill="white" transform="translate(-3)"/>
</clipPath>
</defs>
</svg>
